<svg width="51" height="51" viewBox="0 0 51 51" fill="none" xmlns="http://www.w3.org/2000/svg">
<path d="M14.8304 6.53228C16.7111 6.21182 18.6398 6.31753 20.4743 6.84161C22.3088 7.36569 24.0022 8.29479 25.4299 9.5604L25.5085 9.63053L25.5807 9.56678C26.9433 8.37103 28.5452 7.47959 30.2795 6.95193C32.0138 6.42426 33.8407 6.2725 35.6384 6.50678L36.1611 6.58328C38.427 6.97451 40.5449 7.97123 42.2906 9.4679C44.0363 10.9646 45.3447 12.9055 46.0773 15.085C46.8099 17.2646 46.9395 19.6018 46.4523 21.849C45.965 24.0962 44.8792 26.1698 43.3096 27.8503L42.9271 28.2434L42.8251 28.3305L26.9939 44.0109C26.6285 44.3725 26.1445 44.5894 25.6315 44.6214C25.1185 44.6535 24.6112 44.4985 24.2037 44.1851L24.004 44.0109L8.08137 28.2392C6.39459 26.5979 5.19498 24.5218 4.61541 22.2408C4.03583 19.9598 4.09891 17.5629 4.79765 15.3156C5.49639 13.0682 6.80352 11.0581 8.57429 9.50785C10.3451 7.95761 12.5104 6.92773 14.8304 6.53228Z" fill="white"/>
<path d="M12.792 29.392C12.856 29.2427 13.0267 28.8587 13.304 28.24C13.5813 27.632 13.9493 26.832 14.408 25.84C14.8667 24.8373 15.3893 23.6853 15.976 22.384C16.5627 21.0827 17.1973 19.6747 17.88 18.16C17.9227 18.0747 17.96 17.9787 17.992 17.872C18.024 17.7547 18.04 17.6427 18.04 17.536C18.04 17.4293 18.0027 17.3387 17.928 17.264C17.864 17.1893 17.7307 17.152 17.528 17.152C17.08 17.152 16.7067 17.3013 16.408 17.6C16.12 17.888 15.9067 18.2453 15.768 18.672C15.6293 19.0987 15.56 19.5253 15.56 19.952C15.56 20.048 15.56 20.144 15.56 20.24C15.5707 20.336 15.5867 20.432 15.608 20.528C15.384 20.528 15.2027 20.4587 15.064 20.32C14.9253 20.1707 14.824 19.9893 14.76 19.776C14.696 19.552 14.664 19.3493 14.664 19.168C14.664 18.8267 14.76 18.496 14.952 18.176C15.144 17.856 15.3947 17.568 15.704 17.312C16.0133 17.0453 16.3547 16.8427 16.728 16.704C17.1013 16.5547 17.4693 16.48 17.832 16.48C18.2053 16.48 18.5147 16.5813 18.76 16.784C19.016 16.9867 19.208 17.3547 19.336 17.888C19.4747 18.4213 19.544 19.1893 19.544 20.192C19.544 20.864 19.5173 21.568 19.464 22.304C19.4213 23.04 19.3733 23.7547 19.32 24.448C19.2667 25.1307 19.2293 25.744 19.208 26.288C19.4 25.648 19.6507 24.9653 19.96 24.24C20.28 23.504 20.6267 22.7787 21 22.064C21.3733 21.3387 21.7413 20.6613 22.104 20.032C22.4667 19.4027 22.792 18.8533 23.08 18.384C23.3787 17.9147 23.6027 17.5733 23.752 17.36C23.9013 17.136 24.0293 16.9707 24.136 16.864C24.2427 16.7467 24.3867 16.688 24.568 16.688C24.7173 16.688 24.9093 16.7307 25.144 16.816C25.0693 17.008 24.9627 17.3067 24.824 17.712C24.696 18.1067 24.5627 18.5867 24.424 19.152C24.2533 19.792 24.0827 20.5173 23.912 21.328C23.752 22.128 23.5973 22.944 23.448 23.776C23.3093 24.608 23.1973 25.392 23.112 26.128C23.0373 26.8533 23 27.4773 23 28C23 28.2453 23.0107 28.4373 23.032 28.576C23.0533 28.7147 23.0853 28.8373 23.128 28.944C23.1707 29.0613 23.2133 29.2107 23.256 29.392C22.872 29.392 22.5733 29.328 22.36 29.2C22.1573 29.0827 22.0187 28.8853 21.944 28.608C21.88 28.3307 21.848 27.9627 21.848 27.504C21.848 26.2667 21.9973 24.944 22.296 23.536C22.6053 22.128 22.9627 20.672 23.368 19.168C23.0587 19.5733 22.7387 20.0747 22.408 20.672C22.0773 21.2693 21.7467 21.9093 21.416 22.592C21.096 23.2747 20.7867 23.9573 20.488 24.64C20.1893 25.312 19.928 25.936 19.704 26.512C19.48 27.088 19.304 27.568 19.176 27.952C19.1013 27.9733 19.048 27.9893 19.016 28C18.9947 28.0107 18.9573 28.016 18.904 28.016C18.584 28.016 18.376 27.8293 18.28 27.456C18.1947 27.072 18.152 26.544 18.152 25.872C18.152 25.4453 18.1627 24.9547 18.184 24.4C18.2053 23.8347 18.2267 23.2587 18.248 22.672C18.28 22.0747 18.3067 21.4987 18.328 20.944C18.3493 20.3787 18.36 19.8773 18.36 19.44C18.36 19.248 18.3547 19.0827 18.344 18.944C18.344 18.7947 18.3387 18.656 18.328 18.528C17.496 20.48 16.792 22.1493 16.216 23.536C15.6507 24.912 15.1707 26.032 14.776 26.896C14.3813 27.76 14.0293 28.3893 13.72 28.784C13.4107 29.1893 13.1013 29.392 12.792 29.392Z" fill="black"/>
<path d="M29.376 29.376C29.12 29.376 28.848 29.328 28.56 29.232C28.2827 29.136 28.048 28.9333 27.856 28.624C27.664 28.3253 27.568 27.872 27.568 27.264C27.568 26.848 27.6213 26.432 27.728 26.016C27.824 25.6 27.9627 25.2533 28.144 24.976C28.336 24.6987 28.56 24.56 28.816 24.56C28.9547 24.56 29.1253 24.608 29.328 24.704C29.136 25.1947 28.9867 25.6587 28.88 26.096C28.784 26.5227 28.736 26.912 28.736 27.264C28.736 27.7333 28.8213 28.096 28.992 28.352C29.1733 28.608 29.424 28.736 29.744 28.736C30.0107 28.736 30.2507 28.6187 30.464 28.384C30.688 28.16 30.9173 27.7333 31.152 27.104C31.312 26.6347 31.4827 26.0693 31.664 25.408C31.856 24.7467 32.0427 24.0427 32.224 23.296C32.416 22.5493 32.592 21.8027 32.752 21.056C32.9227 20.3093 33.072 19.6213 33.2 18.992C33.3387 18.352 33.4453 17.8187 33.52 17.392C33.008 17.4027 32.5653 17.4187 32.192 17.44C31.8293 17.4613 31.4933 17.4987 31.184 17.552C30.8853 17.5947 30.5653 17.6533 30.224 17.728C30.288 17.3227 30.5333 17.0187 30.96 16.816C31.3867 16.6133 32.0427 16.512 32.928 16.512C33.3653 16.512 33.808 16.5333 34.256 16.576C34.704 16.6187 35.12 16.6667 35.504 16.72C35.888 16.7627 36.1813 16.8053 36.384 16.848C36.2453 17.0827 36.0373 17.232 35.76 17.296C35.4827 17.3493 35.2533 17.376 35.072 17.376C34.88 17.376 34.688 17.3813 34.496 17.392C34.3147 17.392 34.1547 17.392 34.016 17.392C34.112 17.488 34.1813 17.6053 34.224 17.744C34.2773 17.872 34.304 17.9947 34.304 18.112C34.304 18.2507 34.2667 18.5547 34.192 19.024C34.1173 19.4933 34.0107 20.064 33.872 20.736C33.7333 21.408 33.568 22.1227 33.376 22.88C33.1947 23.6267 32.992 24.3627 32.768 25.088C32.544 25.8027 32.304 26.4427 32.048 27.008C31.7707 27.648 31.488 28.1333 31.2 28.464C30.912 28.8053 30.6133 29.04 30.304 29.168C30.0053 29.3067 29.696 29.376 29.376 29.376Z" fill="black"/>
</svg>
